<svg width="24" height="25" viewBox="0 0 24 25" fill="none" xmlns="http://www.w3.org/2000/svg">
<path d="M23.25 8.80469C23.25 9.0036 23.171 9.19437 23.0303 9.33502C22.8897 9.47567 22.6989 9.55469 22.5 9.55469H21V11.0547C21 11.2536 20.921 11.4444 20.7803 11.585C20.6397 11.7257 20.4489 11.8047 20.25 11.8047C20.0511 11.8047 19.8603 11.7257 19.7197 11.585C19.579 11.4444 19.5 11.2536 19.5 11.0547V9.55469H18C17.8011 9.55469 17.6103 9.47567 17.4697 9.33502C17.329 9.19437 17.25 9.0036 17.25 8.80469C17.25 8.60578 17.329 8.41501 17.4697 8.27436C17.6103 8.13371 17.8011 8.05469 18 8.05469H19.5V6.55469C19.5 6.35578 19.579 6.16501 19.7197 6.02436C19.8603 5.88371 20.0511 5.80469 20.25 5.80469C20.4489 5.80469 20.6397 5.88371 20.7803 6.02436C20.921 6.16501 21 6.35578 21 6.55469V8.05469H22.5C22.6989 8.05469 22.8897 8.13371 23.0303 8.27436C23.171 8.41501 23.25 8.60578 23.25 8.80469ZM14.25 5.05469H15V5.80469C15 6.0036 15.079 6.19437 15.2197 6.33502C15.3603 6.47567 15.5511 6.55469 15.75 6.55469C15.9489 6.55469 16.1397 6.47567 16.2803 6.33502C16.421 6.19437 16.5 6.0036 16.5 5.80469V5.05469H17.25C17.4489 5.05469 17.6397 4.97567 17.7803 4.83502C17.921 4.69437 18 4.5036 18 4.30469C18 4.10578 17.921 3.91501 17.7803 3.77436C17.6397 3.63371 17.4489 3.55469 17.25 3.55469H16.5V2.80469C16.5 2.60578 16.421 2.41501 16.2803 2.27436C16.1397 2.13371 15.9489 2.05469 15.75 2.05469C15.5511 2.05469 15.3603 2.13371 15.2197 2.27436C15.079 2.41501 15 2.60578 15 2.80469V3.55469H14.25C14.0511 3.55469 13.8603 3.63371 13.7197 3.77436C13.579 3.91501 13.5 4.10578 13.5 4.30469C13.5 4.5036 13.579 4.69437 13.7197 4.83502C13.8603 4.97567 14.0511 5.05469 14.25 5.05469ZM21.0281 14.6266C21.0748 14.7729 21.0748 14.9302 21.0281 15.0766C20.588 16.6537 19.7424 18.0881 18.5756 19.2369C17.4088 20.3857 15.9615 21.2089 14.3777 21.6245C12.7939 22.0401 11.1288 22.0336 9.54832 21.6058C7.96779 21.1779 6.52689 20.3435 5.36905 19.1856C4.21121 18.0278 3.37682 16.5869 2.94893 15.0064C2.52104 13.4258 2.51458 11.7608 2.93018 10.177C3.34579 8.59319 4.16896 7.14585 5.31778 5.97906C6.46659 4.81227 7.90096 3.96671 9.47812 3.52656C9.63798 3.47682 9.81006 3.48344 9.96563 3.54531C10.1116 3.60402 10.2353 3.70711 10.3194 3.84002C10.4036 3.97293 10.4438 4.12893 10.4344 4.28594C10.4341 4.34333 10.4246 4.40031 10.4062 4.45469C10.0343 5.79714 10.0251 7.21423 10.3796 8.56139C10.7342 9.90855 11.4397 11.1376 12.4242 12.1231C13.4087 13.1086 14.6371 13.8153 15.9839 14.1711C17.3307 14.5269 18.7478 14.5191 20.0906 14.1484L20.2969 14.1109C20.4573 14.1098 20.6141 14.1589 20.7452 14.2514C20.8764 14.3439 20.9753 14.4751 21.0281 14.6266ZM19.1531 15.8547C17.7382 16.0312 16.3017 15.8824 14.9531 15.4195C13.6044 14.9566 12.3793 14.1919 11.3711 13.1836C10.3628 12.1754 9.59811 10.9502 9.13522 9.60161C8.67232 8.25298 8.52346 6.81646 8.7 5.40156C7.549 5.93383 6.54357 6.73619 5.7692 7.7404C4.99482 8.74461 4.47442 9.92098 4.25223 11.1695C4.03004 12.418 4.11263 13.7017 4.493 14.9114C4.87337 16.1211 5.54025 17.2211 6.43694 18.1178C7.33362 19.0144 8.4336 19.6813 9.64332 20.0617C10.853 20.4421 12.1367 20.5247 13.3852 20.3025C14.6337 20.0803 15.8101 19.5599 16.8143 18.7855C17.8185 18.0111 18.6209 17.0057 19.1531 15.8547Z" fill="black"/>
</svg>
