<svg width="24" height="25" viewBox="0 0 24 25" fill="none" xmlns="http://www.w3.org/2000/svg">
<path d="M12 5.67969C10.7391 5.67969 9.5066 6.05357 8.45824 6.75407C7.40988 7.45456 6.59278 8.4502 6.11027 9.61508C5.62776 10.78 5.50151 12.0618 5.74749 13.2984C5.99347 14.535 6.60063 15.6709 7.49219 16.5625C8.38375 17.4541 9.51967 18.0612 10.7563 18.3072C11.9929 18.5532 13.2747 18.4269 14.4396 17.9444C15.6045 17.4619 16.6001 16.6448 17.3006 15.5964C18.0011 14.5481 18.375 13.3155 18.375 12.0547C18.3725 10.3647 17.7001 8.74463 16.5051 7.54962C15.3101 6.35461 13.69 5.68217 12 5.67969ZM12 16.9297C11.0358 16.9297 10.0933 16.6438 9.2916 16.1081C8.48991 15.5724 7.86506 14.8111 7.49609 13.9203C7.12711 13.0295 7.03057 12.0493 7.21867 11.1036C7.40677 10.158 7.87107 9.28932 8.55285 8.60754C9.23464 7.92576 10.1033 7.46146 11.0489 7.27336C11.9946 7.08526 12.9748 7.1818 13.8656 7.55078C14.7564 7.91975 15.5177 8.54459 16.0534 9.34628C16.5891 10.148 16.875 11.0905 16.875 12.0547C16.875 13.3476 16.3614 14.5876 15.4471 15.5018C14.5329 16.4161 13.2929 16.9297 12 16.9297ZM11.25 3.42969V2.67969C11.25 2.48078 11.329 2.29001 11.4697 2.14936C11.6103 2.00871 11.8011 1.92969 12 1.92969C12.1989 1.92969 12.3897 2.00871 12.5303 2.14936C12.671 2.29001 12.75 2.48078 12.75 2.67969V3.42969C12.75 3.6286 12.671 3.81937 12.5303 3.96002C12.3897 4.10067 12.1989 4.17969 12 4.17969C11.8011 4.17969 11.6103 4.10067 11.4697 3.96002C11.329 3.81937 11.25 3.6286 11.25 3.42969ZM4.8375 5.95156C4.70823 5.80889 4.63877 5.62198 4.64351 5.42951C4.64825 5.23705 4.72682 5.05378 4.86296 4.91764C4.99909 4.78151 5.18236 4.70294 5.37483 4.6982C5.56729 4.69346 5.75421 4.76292 5.89688 4.89219L6.43125 5.42656C6.57151 5.56716 6.65028 5.75765 6.65028 5.95625C6.65028 6.15485 6.57151 6.34534 6.43125 6.48594C6.28947 6.62395 6.09942 6.70118 5.90156 6.70118C5.7037 6.70118 5.51365 6.62395 5.37187 6.48594L4.8375 5.95156ZM4.125 12.0547C4.125 12.2536 4.04598 12.4444 3.90533 12.585C3.76468 12.7257 3.57391 12.8047 3.375 12.8047H2.625C2.42609 12.8047 2.23532 12.7257 2.09467 12.585C1.95402 12.4444 1.875 12.2536 1.875 12.0547C1.875 11.8558 1.95402 11.665 2.09467 11.5244C2.23532 11.3837 2.42609 11.3047 2.625 11.3047H3.375C3.57391 11.3047 3.76468 11.3837 3.90533 11.5244C4.04598 11.665 4.125 11.8558 4.125 12.0547ZM6.43125 17.6234C6.57151 17.764 6.65028 17.9545 6.65028 18.1531C6.65028 18.3517 6.57151 18.5422 6.43125 18.6828L5.89688 19.2172C5.75688 19.3551 5.56836 19.4325 5.37187 19.4328C5.17272 19.432 4.98147 19.3548 4.8375 19.2172C4.69724 19.0766 4.61847 18.8861 4.61847 18.6875C4.61847 18.4889 4.69724 18.2984 4.8375 18.1578L5.37187 17.6234C5.51247 17.4832 5.70296 17.4044 5.90156 17.4044C6.10016 17.4044 6.29065 17.4832 6.43125 17.6234ZM12.75 20.6797V21.4297C12.75 21.6286 12.671 21.8194 12.5303 21.96C12.3897 22.1007 12.1989 22.1797 12 22.1797C11.8011 22.1797 11.6103 22.1007 11.4697 21.96C11.329 21.8194 11.25 21.6286 11.25 21.4297V20.6797C11.25 20.4808 11.329 20.29 11.4697 20.1494C11.6103 20.0087 11.8011 19.9297 12 19.9297C12.1989 19.9297 12.3897 20.0087 12.5303 20.1494C12.671 20.29 12.75 20.4808 12.75 20.6797ZM19.1625 18.1578C19.3028 18.2984 19.3815 18.4889 19.3815 18.6875C19.3815 18.8861 19.3028 19.0766 19.1625 19.2172C19.0185 19.3548 18.8273 19.432 18.6281 19.4328C18.4316 19.4325 18.2431 19.3551 18.1031 19.2172L17.5687 18.6828C17.4395 18.5401 17.37 18.3532 17.3748 18.1608C17.3795 17.9683 17.4581 17.785 17.5942 17.6489C17.7303 17.5128 17.9136 17.4342 18.1061 17.4295C18.2985 17.4247 18.4855 17.4942 18.6281 17.6234L19.1625 18.1578ZM22.125 12.0547C22.125 12.2536 22.046 12.4444 21.9053 12.585C21.7647 12.7257 21.5739 12.8047 21.375 12.8047H20.625C20.4261 12.8047 20.2353 12.7257 20.0947 12.585C19.954 12.4444 19.875 12.2536 19.875 12.0547C19.875 11.8558 19.954 11.665 20.0947 11.5244C20.2353 11.3837 20.4261 11.3047 20.625 11.3047H21.375C21.5739 11.3047 21.7647 11.3837 21.9053 11.5244C22.046 11.665 22.125 11.8558 22.125 12.0547ZM17.5687 6.48594C17.4285 6.34534 17.3497 6.15485 17.3497 5.95625C17.3497 5.75765 17.4285 5.56716 17.5687 5.42656L18.1031 4.89219C18.1713 4.8169 18.2541 4.75625 18.3465 4.71393C18.4389 4.67162 18.5389 4.6485 18.6405 4.646C18.742 4.6435 18.843 4.66166 18.9374 4.69939C19.0317 4.73711 19.1174 4.7936 19.1892 4.86545C19.2611 4.93729 19.3176 5.02298 19.3553 5.11731C19.393 5.21165 19.4112 5.31267 19.4087 5.41424C19.4062 5.5158 19.3831 5.61581 19.3408 5.70817C19.2984 5.80054 19.2378 5.88334 19.1625 5.95156L18.6281 6.48594C18.4863 6.62395 18.2963 6.70118 18.0984 6.70118C17.9006 6.70118 17.7105 6.62395 17.5687 6.48594Z" fill="black"/>
</svg>
